<svg xmlns="http://www.w3.org/2000/svg" xmlns:xlink="http://www.w3.org/1999/xlink" width="1920" zoomAndPan="magnify" viewBox="0 0 1440 809.999993" height="1080" preserveAspectRatio="xMidYMid meet" version="1.2"><defs/><g id="05e2704485"><rect x="0" width="1440" y="0" height="809.999993" style="fill:#ffffff;fill-opacity:1;stroke:none;"/><rect x="0" width="1440" y="0" height="809.999993" style="fill:#ffffff;fill-opacity:1;stroke:none;"/><g style="fill:#000000;fill-opacity:1;"><g transform="translate(72.028569, 528.227114)"><path style="stroke:none" d="M 362.296875 0 L 30.703125 0 L 30.703125 -275.375 L 347.140625 -275.375 L 347.140625 -207.25 L 146.21875 -207.25 L 146.21875 -164.0625 L 316.046875 -164.0625 L 316.046875 -111.109375 L 146.21875 -111.109375 L 146.21875 -68.125 L 362.296875 -68.125 Z M 362.296875 0 "/></g></g><g style="fill:#000000;fill-opacity:1;"><g transform="translate(479.150424, 528.227114)"><path style="stroke:none" d="M 208.203125 5.953125 C 140.148438 5.953125 90.066406 -8.054688 57.953125 -36.078125 C 29.554688 -60.890625 15.359375 -94.660156 15.359375 -137.390625 C 15.359375 -180.253906 29.554688 -214.09375 57.953125 -238.90625 C 90.066406 -266.925781 140.148438 -280.9375 208.203125 -280.9375 C 246.960938 -280.9375 279.195312 -276.585938 304.90625 -267.890625 C 330.625 -259.191406 350.804688 -247.320312 365.453125 -232.28125 C 380.109375 -217.25 390.125 -199.945312 395.5 -180.375 L 271.921875 -180.375 C 258.992188 -198.15625 237.753906 -207.046875 208.203125 -207.046875 C 180.316406 -207.046875 159.785156 -199.050781 146.609375 -183.0625 C 136.117188 -170.144531 130.875 -154.921875 130.875 -137.390625 C 130.875 -119.867188 136.117188 -104.710938 146.609375 -91.921875 C 159.785156 -75.929688 180.316406 -67.9375 208.203125 -67.9375 C 230.722656 -67.9375 247.640625 -69.882812 258.953125 -73.78125 C 270.273438 -77.6875 278.5625 -82.773438 283.8125 -89.046875 L 238.71875 -89.046875 L 238.71875 -137.390625 L 395.5 -137.390625 L 395.5 0.1875 L 347.515625 0.1875 L 337.734375 -26.484375 C 307.160156 -4.859375 263.984375 5.953125 208.203125 5.953125 Z M 208.203125 5.953125 "/></g></g><g style="fill:#000000;fill-opacity:1;"><g transform="translate(927.145571, 528.227114)"><path style="stroke:none" d="M 214.921875 0 L 30.703125 0 L 30.703125 -275.375 L 214.921875 -275.375 C 290.273438 -275.375 344.453125 -264.816406 377.453125 -243.703125 C 404.066406 -226.691406 419.226562 -203.535156 422.9375 -174.234375 C 424.601562 -161.578125 425.4375 -149.363281 425.4375 -137.59375 C 425.4375 -125.945312 424.632812 -113.757812 423.03125 -101.03125 C 421.4375 -88.300781 417.179688 -75.957031 410.265625 -64 C 403.359375 -52.039062 392.390625 -41.257812 377.359375 -31.65625 C 362.328125 -22.0625 341.726562 -14.382812 315.5625 -8.625 C 289.40625 -2.875 255.859375 0 214.921875 0 Z M 203.984375 -68.125 C 262.703125 -68.125 295.898438 -82.960938 303.578125 -112.640625 C 305.617188 -120.953125 306.640625 -129.269531 306.640625 -137.59375 C 306.640625 -146.03125 305.582031 -154.375 303.46875 -162.625 C 301.363281 -170.882812 296.890625 -178.367188 290.046875 -185.078125 C 283.203125 -191.796875 272.9375 -197.171875 259.25 -201.203125 C 245.5625 -205.234375 227.140625 -207.25 203.984375 -207.25 L 146.21875 -207.25 L 146.21875 -68.125 Z M 203.984375 -68.125 "/></g></g></g></svg>