<?xml version="1.0" standalone="no"?>
<!DOCTYPE svg PUBLIC "-//W3C//DTD SVG 20010904//EN"
 "http://www.w3.org/TR/2001/REC-SVG-20010904/DTD/svg10.dtd">
<svg version="1.0" xmlns="http://www.w3.org/2000/svg"
 width="8000.000000pt" height="4500.000000pt" viewBox="0 0 8000.000000 4500.000000"
 preserveAspectRatio="xMidYMid meet">

<g transform="translate(0.000000,4500.000000) scale(0.100000,-0.100000)"
fill="#000000" stroke="none">
<path d="M37450 31250 c-3177 -100 -5538 -758 -7210 -2008 -841 -630 -1514
-1427 -1974 -2342 -441 -873 -675 -1766 -768 -2925 -20 -252 -17 -1174 5
-1440 77 -930 260 -1707 580 -2465 84 -200 284 -593 399 -785 918 -1532 2399
-2629 4402 -3260 1287 -405 2720 -625 4480 -686 379 -13 1585 -7 1881 10 1586
91 2760 294 3900 675 773 259 1416 566 2046 978 91 59 170 108 176 108 5 0 17
-8 25 -17 8 -10 129 -328 267 -708 139 -379 259 -700 267 -712 l14 -23 1313 0
c1008 0 1316 3 1325 12 9 9 12 867 12 3798 0 3656 -1 3787 -18 3803 -17 16
-333 17 -4340 17 l-4321 0 -15 -22 c-14 -20 -16 -162 -16 -1320 0 -1285 0
-1298 20 -1318 20 -20 33 -20 1224 -20 1322 0 1244 4 1212 -58 -16 -32 -147
-156 -256 -242 -361 -288 -944 -547 -1519 -674 -630 -140 -1423 -204 -2412
-193 -480 5 -549 9 -849 47 -977 123 -1748 468 -2320 1040 -643 641 -1006
1463 -1081 2440 -15 194 -6 666 16 840 73 594 237 1087 515 1554 307 514 688
904 1170 1196 538 326 1177 514 1990 587 244 21 895 24 1135 5 1035 -84 1802
-353 2415 -845 192 -154 382 -348 520 -530 24 -32 53 -65 64 -73 18 -12 479
-14 3417 -14 1869 0 3404 3 3413 6 26 10 19 52 -44 247 -305 942 -775 1738
-1475 2498 -676 734 -1601 1351 -2730 1819 -1444 600 -2967 896 -5100 990
-316 14 -1420 20 -1755 10z"/>
<path d="M5715 30938 c-3 -7 -4 -3446 -3 -7643 l3 -7630 9194 -3 c6789 -1
9197 1 9207 9 12 10 14 320 14 1868 0 1664 -2 1859 -16 1879 l-15 22 -5979 0
c-5901 0 -5979 0 -5990 19 -7 13 -10 399 -10 1180 0 1041 2 1161 16 1175 14
15 455 16 4703 16 4529 0 4688 1 4704 18 16 17 17 132 17 1450 0 1419 0 1432
-20 1452 -20 20 -33 20 -4704 20 -4245 0 -4686 1 -4700 16 -14 14 -16 135 -16
1184 0 1049 2 1170 16 1184 14 15 533 16 5560 16 3804 0 5551 3 5565 10 19 11
19 42 19 1880 0 1838 0 1869 -19 1880 -31 16 -17540 14 -17546 -2z"/>
<path d="M53236 30935 c-15 -15 -16 -651 -14 -7643 l3 -7627 5425 -3 c5904 -3
6025 -2 7025 53 1967 110 3514 377 4930 849 490 164 827 301 1240 506 287 142
460 240 700 398 714 468 1247 974 1619 1536 126 189 188 299 320 566 302 609
457 1139 540 1850 157 1334 154 2495 -10 3805 -86 691 -237 1224 -500 1760
-495 1014 -1371 1876 -2526 2486 -1446 764 -3467 1229 -6098 1404 -230 15
-650 36 -1120 57 -191 8 -1845 12 -5891 15 -5157 3 -5628 2 -5643 -12z m10519
-3783 c526 -34 851 -64 1150 -107 604 -86 1115 -218 1600 -415 562 -228 974
-506 1288 -869 296 -341 478 -681 580 -1086 217 -854 229 -1748 36 -2625 -58
-266 -123 -452 -233 -667 -350 -688 -997 -1183 -1971 -1508 -726 -243 -1563
-377 -2660 -425 -123 -6 -1034 -10 -2067 -10 l-1848 0 0 3858 c0 2122 3 3862
7 3866 12 12 3924 0 4118 -12z"/>
</g>
</svg>
