<svg xmlns="http://www.w3.org/2000/svg" xmlns:xlink="http://www.w3.org/1999/xlink" width="500" zoomAndPan="magnify" viewBox="0 0 375 374.999991" height="500" preserveAspectRatio="xMidYMid meet" version="1.2"><defs><clipPath id="3029ae6369"><path d="M 0 58.125 L 375 58.125 L 375 316.875 L 0 316.875 Z M 0 58.125 "/></clipPath></defs><g id="e9e97e7439"><rect x="0" width="375" y="0" height="374.999991" style="fill:#ffffff;fill-opacity:1;stroke:none;"/><rect x="0" width="375" y="0" height="374.999991" style="fill:#ffffff;fill-opacity:1;stroke:none;"/><g clip-rule="nonzero" clip-path="url(#3029ae6369)"><path style=" stroke:none;fill-rule:evenodd;fill:#000000;fill-opacity:1;" d="M 245.738281 196.074219 L 197.191406 241.332031 C 191.675781 246.480469 183.113281 246.480469 177.59375 241.332031 L 132.394531 199.195312 L 26.113281 313.449219 C 31.367188 315.753906 37.167969 317.042969 43.277344 317.042969 C 43.277344 317.042969 331.507812 317.042969 331.507812 317.042969 C 337.730469 317.042969 343.640625 315.710938 348.96875 313.3125 Z M 5.605469 80.984375 L 111.375 179.597656 L 5.222656 293.710938 C 2.257812 287.898438 0.589844 281.324219 0.589844 274.355469 C 0.589844 274.355469 0.589844 101.074219 0.589844 101.074219 C 0.589844 93.8125 2.402344 86.972656 5.605469 80.984375 Z M 369.183594 80.984375 C 372.382812 86.972656 374.195312 93.8125 374.195312 101.074219 L 374.195312 274.355469 C 374.195312 281.195312 372.589844 287.664062 369.71875 293.394531 L 266.765625 176.464844 Z M 347.816406 61.617188 L 187.390625 211.179688 L 26.972656 61.617188 C 31.992188 59.535156 37.5 58.386719 43.277344 58.386719 C 43.277344 58.386719 331.507812 58.386719 331.507812 58.386719 C 337.285156 58.386719 342.792969 59.535156 347.816406 61.617188 Z M 347.816406 61.617188 "/></g></g></svg>